<mxfile host="app.diagrams.net" modified="2023-04-17T05:07:46.954Z" agent="Mozilla/5.0 (Windows NT 10.0; Win64; x64) AppleWebKit/537.36 (KHTML, like Gecko) Chrome/112.0.0.0 Safari/537.36" version="21.1.8" etag="NLyGeIUutop3eCndXNqV" type="device">
  <diagram id="6lVLMTXGu-sBJxkR_qro" name="Page-1">
    <mxGraphModel dx="1434" dy="745" grid="1" gridSize="10" guides="1" tooltips="1" connect="1" arrows="1" fold="1" page="1" pageScale="1" pageWidth="850" pageHeight="1100" math="0" shadow="0">
      <root>
        <mxCell id="0" />
        <mxCell id="1" parent="0" />
        <mxCell id="aqWAKgbFBqKvB-rPjWSz-29" value="" style="rounded=0;whiteSpace=wrap;html=1;" vertex="1" parent="1">
          <mxGeometry x="300" y="150" width="60" height="160" as="geometry" />
        </mxCell>
        <mxCell id="aqWAKgbFBqKvB-rPjWSz-26" value="" style="rounded=0;whiteSpace=wrap;html=1;" vertex="1" parent="1">
          <mxGeometry x="60" y="150" width="60" height="160" as="geometry" />
        </mxCell>
        <mxCell id="aqWAKgbFBqKvB-rPjWSz-1" value="&lt;font style=&quot;font-size: 20px;&quot;&gt;1&lt;/font&gt;" style="rounded=0;whiteSpace=wrap;html=1;fontSize=20;" vertex="1" parent="1">
          <mxGeometry x="60" y="160" width="60" height="60" as="geometry" />
        </mxCell>
        <mxCell id="aqWAKgbFBqKvB-rPjWSz-2" value="-1" style="rounded=0;whiteSpace=wrap;html=1;fontSize=20;" vertex="1" parent="1">
          <mxGeometry x="120" y="160" width="60" height="60" as="geometry" />
        </mxCell>
        <mxCell id="aqWAKgbFBqKvB-rPjWSz-3" value="-2" style="rounded=0;whiteSpace=wrap;html=1;fontSize=20;" vertex="1" parent="1">
          <mxGeometry x="180" y="160" width="60" height="60" as="geometry" />
        </mxCell>
        <mxCell id="aqWAKgbFBqKvB-rPjWSz-4" value="-3" style="rounded=0;whiteSpace=wrap;html=1;fontSize=20;" vertex="1" parent="1">
          <mxGeometry x="240" y="160" width="60" height="60" as="geometry" />
        </mxCell>
        <mxCell id="aqWAKgbFBqKvB-rPjWSz-5" value="3" style="rounded=0;whiteSpace=wrap;html=1;fontSize=20;" vertex="1" parent="1">
          <mxGeometry x="300" y="160" width="60" height="60" as="geometry" />
        </mxCell>
        <mxCell id="aqWAKgbFBqKvB-rPjWSz-6" value="-4" style="rounded=0;whiteSpace=wrap;html=1;fontSize=20;" vertex="1" parent="1">
          <mxGeometry x="360" y="160" width="60" height="60" as="geometry" />
        </mxCell>
        <mxCell id="aqWAKgbFBqKvB-rPjWSz-7" value="-5" style="rounded=0;whiteSpace=wrap;html=1;fontSize=20;" vertex="1" parent="1">
          <mxGeometry x="420" y="160" width="60" height="60" as="geometry" />
        </mxCell>
        <mxCell id="aqWAKgbFBqKvB-rPjWSz-8" value="-6" style="rounded=0;whiteSpace=wrap;html=1;fontSize=20;" vertex="1" parent="1">
          <mxGeometry x="480" y="160" width="60" height="60" as="geometry" />
        </mxCell>
        <mxCell id="aqWAKgbFBqKvB-rPjWSz-9" value="0" style="rounded=0;whiteSpace=wrap;html=1;fontSize=20;" vertex="1" parent="1">
          <mxGeometry x="540" y="160" width="60" height="60" as="geometry" />
        </mxCell>
        <mxCell id="aqWAKgbFBqKvB-rPjWSz-10" value="2" style="rounded=0;whiteSpace=wrap;html=1;fontSize=20;" vertex="1" parent="1">
          <mxGeometry x="600" y="160" width="60" height="60" as="geometry" />
        </mxCell>
        <mxCell id="aqWAKgbFBqKvB-rPjWSz-11" value="-7" style="rounded=0;whiteSpace=wrap;html=1;fontSize=20;" vertex="1" parent="1">
          <mxGeometry x="660" y="160" width="60" height="60" as="geometry" />
        </mxCell>
        <mxCell id="aqWAKgbFBqKvB-rPjWSz-12" value="-8" style="rounded=0;whiteSpace=wrap;html=1;fontSize=20;" vertex="1" parent="1">
          <mxGeometry x="720" y="160" width="60" height="60" as="geometry" />
        </mxCell>
        <mxCell id="aqWAKgbFBqKvB-rPjWSz-13" value="1" style="rounded=0;whiteSpace=wrap;html=1;fontSize=20;" vertex="1" parent="1">
          <mxGeometry x="60" y="240" width="60" height="60" as="geometry" />
        </mxCell>
        <mxCell id="aqWAKgbFBqKvB-rPjWSz-14" value="-1" style="rounded=0;whiteSpace=wrap;html=1;fontSize=20;" vertex="1" parent="1">
          <mxGeometry x="120" y="240" width="60" height="60" as="geometry" />
        </mxCell>
        <mxCell id="aqWAKgbFBqKvB-rPjWSz-15" value="-2" style="rounded=0;whiteSpace=wrap;html=1;fontSize=20;" vertex="1" parent="1">
          <mxGeometry x="180" y="240" width="60" height="60" as="geometry" />
        </mxCell>
        <mxCell id="aqWAKgbFBqKvB-rPjWSz-16" value="-3" style="rounded=0;whiteSpace=wrap;html=1;fontSize=20;" vertex="1" parent="1">
          <mxGeometry x="240" y="240" width="60" height="60" as="geometry" />
        </mxCell>
        <mxCell id="aqWAKgbFBqKvB-rPjWSz-17" value="3" style="rounded=0;whiteSpace=wrap;html=1;fontSize=20;" vertex="1" parent="1">
          <mxGeometry x="300" y="240" width="60" height="60" as="geometry" />
        </mxCell>
        <mxCell id="aqWAKgbFBqKvB-rPjWSz-18" value="0" style="rounded=0;whiteSpace=wrap;html=1;fontSize=20;" vertex="1" parent="1">
          <mxGeometry x="360" y="240" width="60" height="60" as="geometry" />
        </mxCell>
        <mxCell id="aqWAKgbFBqKvB-rPjWSz-19" value="-4" style="rounded=0;whiteSpace=wrap;html=1;fontSize=20;" vertex="1" parent="1">
          <mxGeometry x="420" y="240" width="60" height="60" as="geometry" />
        </mxCell>
        <mxCell id="aqWAKgbFBqKvB-rPjWSz-20" value="-5" style="rounded=0;whiteSpace=wrap;html=1;fontSize=20;" vertex="1" parent="1">
          <mxGeometry x="480" y="240" width="60" height="60" as="geometry" />
        </mxCell>
        <mxCell id="aqWAKgbFBqKvB-rPjWSz-21" value="2" style="rounded=0;whiteSpace=wrap;html=1;fontSize=20;" vertex="1" parent="1">
          <mxGeometry x="540" y="240" width="60" height="60" as="geometry" />
        </mxCell>
        <mxCell id="aqWAKgbFBqKvB-rPjWSz-22" value="-6" style="rounded=0;whiteSpace=wrap;html=1;fontSize=20;" vertex="1" parent="1">
          <mxGeometry x="600" y="240" width="60" height="60" as="geometry" />
        </mxCell>
        <mxCell id="aqWAKgbFBqKvB-rPjWSz-23" value="-7" style="rounded=0;whiteSpace=wrap;html=1;fontSize=20;" vertex="1" parent="1">
          <mxGeometry x="660" y="240" width="60" height="60" as="geometry" />
        </mxCell>
        <mxCell id="aqWAKgbFBqKvB-rPjWSz-24" value="-8" style="rounded=0;whiteSpace=wrap;html=1;fontSize=20;" vertex="1" parent="1">
          <mxGeometry x="720" y="240" width="60" height="60" as="geometry" />
        </mxCell>
      </root>
    </mxGraphModel>
  </diagram>
</mxfile>
